<svg width="149" height="31" viewBox="0 0 149 31" fill="none" xmlns="http://www.w3.org/2000/svg">
<g clip-path="url(#clip0_98_2)">
<path d="M109.828 -0.0272617L100.506 5.99893L102.678 9.35813L112 3.33194L109.828 -0.0272617Z" fill="#766150"/>
<path d="M24.1001 7.3H29.1001L34.6001 25.9L39.7001 7.3H44.8001L49.9001 25.9L55.4001 7.3H60.4001L53.1001 30.7H47.2001L42.4001 12.9L37.6001 30.7H31.7001L24.1001 7.3Z" fill="#766150"/>
<path d="M56 30.7L67 7.4H71.4L82.4 30.8H78L75.4 25.3H63.1L60.5 30.8H56V30.7ZM64.7 21.6H73.8L69.3 12L64.7 21.6Z" fill="#766150"/>
<path d="M92.3999 25.6V21.3H96.6999V24.8C96.6999 26.3 97.5999 27.1 99.4999 27.1H107.8C108.7 27.1 109.2 26.7 109.2 26V9.4H113.5V26.5C113.5 29.3 111.7 30.8 108.2 30.8H98.6999C94.4999 30.7 92.3999 29 92.3999 25.6Z" fill="#766150"/>
<path d="M117.5 30.7V7.4H121.8V30.8H117.5V30.7Z" fill="#766150"/>
<path d="M113.5 12.8H97.7V8.5H113.5V12.8Z" fill="#766150"/>
<path d="M125.8 30.7V7.4H130.8L144 24.6V7.4H148.3V30.8H143.3L130.2 13.5V30.8H125.8V30.7Z" fill="#766150"/>
<path d="M17.8 7.3V14.2V16.4V20.1V24.2V30.7H22.1V7.3H17.8Z" fill="#766150"/>
<path d="M4.3 16.4V14.2V7.3H0V30.7H4.3V24.2V20.1V16.4Z" fill="#766150"/>
<path d="M19.6 14.2L1.5 18.3L2.3 21.8L20.4 17.8L19.6 14.2Z" fill="#766150"/>
</g>
<defs>
<clipPath id="clip0_98_2">
<rect width="148.2" height="30.7" fill="white"/>
</clipPath>
</defs>
</svg>
